<svg width="71" height="111" viewBox="0 0 71 111" fill="none" xmlns="http://www.w3.org/2000/svg">
<g clip-path="url(#clip0_6472_9596)">
<path d="M52.3673 58.1363L35.8986 48.4238L35.853 33.7394L52.3217 43.4519L52.3673 58.1363Z" stroke="#139161" stroke-width="3" stroke-linecap="round" stroke-linejoin="round"/>
<path d="M52.3217 43.4519L35.853 33.7394L53.2557 23.5413L69.7244 33.2538L52.3217 43.4519Z" stroke="#139161" stroke-width="3" stroke-linecap="round" stroke-linejoin="round"/>
<path d="M69.8383 68.9357L69.8611 79.2494L52.4585 89.4475L52.3673 58.1363L52.3218 43.4519L69.7244 33.2538L69.7927 51.6613" stroke="#139161" stroke-width="3" stroke-linecap="round" stroke-linejoin="round"/>
<path d="M69.7927 56.6794L69.8155 63.0388" stroke="#139161" stroke-width="3" stroke-linecap="round" stroke-linejoin="round"/>
<path d="M35.0103 80.2669L18.5416 70.5544L18.5188 58.6219L34.9875 68.3344L35.0103 80.2669Z" stroke="#139161" stroke-width="3" stroke-linecap="round" stroke-linejoin="round"/>
<path d="M34.9875 68.3344L18.5188 58.6219L35.8987 48.4238L52.3674 58.1363L34.9875 68.3344Z" stroke="#139161" stroke-width="3" stroke-linecap="round" stroke-linejoin="round"/>
<path d="M52.3674 58.1363L52.4585 89.4475L35.0559 99.6457L35.0103 80.2669L34.9875 68.3344L52.3674 58.1363Z" stroke="#139161" stroke-width="3" stroke-linecap="round" stroke-linejoin="round"/>
<path d="M35.0331 80.2669L18.5416 70.5544L18.5188 58.6219L34.9875 68.3344L35.0331 80.2669Z" stroke="#139161" stroke-width="3" stroke-linecap="round" stroke-linejoin="round"/>
<path d="M52.3901 58.1363L35.9442 67.7563L34.9875 68.3344L18.5188 58.6219L35.8987 48.4238L52.3901 58.1363Z" stroke="#139161" stroke-width="3" stroke-linecap="round" stroke-linejoin="round"/>
<path d="M52.4585 89.4475L35.0787 99.6457L35.0331 80.2669L34.9875 68.3344L35.9442 67.7563L52.3902 58.1363L52.4585 89.4475Z" stroke="#139161" stroke-width="3" stroke-linecap="round" stroke-linejoin="round"/>
<path d="M17.676 109.844L1.18447 100.131L1.13892 80.7525L17.6076 90.465L17.676 109.844Z" stroke="#139161" stroke-width="3" stroke-linecap="round" stroke-linejoin="round"/>
<path d="M17.6076 90.465L1.13892 80.7525L18.5415 70.5544L35.0103 80.2669L17.6076 90.465Z" stroke="#139161" stroke-width="3" stroke-linecap="round" stroke-linejoin="round"/>
<path d="M35.0103 80.2669L35.0559 99.6457L17.676 109.844L17.6077 90.465L35.0103 80.2669Z" stroke="#139161" stroke-width="3" stroke-linecap="round" stroke-linejoin="round"/>
<path d="M53.3469 35.7512V1.15625" stroke="#139161" stroke-width="3" stroke-linecap="round" stroke-linejoin="round"/>
<path d="M42.6639 6.29C41.5265 6.99269 40.5546 7.93994 39.8167 9.06503V21.0438C40.5469 19.9122 41.5204 18.9634 42.6639 18.2688C43.8751 17.624 45.1978 17.2235 46.5589 17.0894C47.9167 16.9525 49.2376 16.5604 50.4541 15.9331C51.5881 15.2162 52.5587 14.2624 53.3014 13.135V1.15625C52.5711 2.28784 51.5976 3.23665 50.4541 3.93128C49.2429 4.576 47.9201 4.97649 46.5589 5.11064C45.1978 5.24479 43.8751 5.64528 42.6639 6.29Z" stroke="#139161" stroke-width="3" stroke-linecap="round" stroke-linejoin="round"/>
</g>
<defs>
<clipPath id="clip0_6472_9596">
<rect width="71" height="111" fill="white"/>
</clipPath>
</defs>
</svg>
