<svg width="74" height="65" viewBox="0 0 74 65" fill="none" xmlns="http://www.w3.org/2000/svg">
<g clip-path="url(#clip0_6281_1810)">
<path d="M15.7558 56.5364C14.615 55.9854 13.4895 55.4038 12.395 54.761C11.918 54.4717 11.5251 54.0641 11.2548 53.5785C10.9846 53.0928 10.8462 52.5456 10.8533 51.9908V33.0127L37.1541 48.0728L63.2391 33.028V51.9449C63.2463 52.4997 63.1079 53.0469 62.8376 53.5325C62.5673 54.0182 62.1744 54.4257 61.6975 54.7151C55.8954 58.0958 49.4517 60.2489 42.7713 61.0391C36.0909 61.8292 29.3181 61.2394 22.8783 59.3066" stroke="#139161" stroke-width="2" stroke-linecap="round" stroke-linejoin="round"/>
<path d="M73.2292 21.5952L73.2137 27.2428L37.1079 48.0881L37.1233 42.4252L73.2292 21.5952Z" stroke="#139161" stroke-width="2" stroke-linecap="round" stroke-linejoin="round"/>
<path d="M37.1233 42.4252L37.1078 48.0881L0.770752 27.2581L0.786169 21.5952L37.1233 42.4252Z" stroke="#139161" stroke-width="2" stroke-linecap="round" stroke-linejoin="round"/>
<path d="M31.4807 3.88745L36.892 0.765244L73.2291 21.5952L37.1232 42.4252L0.786133 21.5952L26.0695 7.00965" stroke="#139161" stroke-width="2" stroke-linecap="round" stroke-linejoin="round"/>
<path d="M28.2588 5.75465L29.4305 5.06593" stroke="#139161" stroke-width="2" stroke-linecap="round" stroke-linejoin="round"/>
<path d="M18.9625 48.0881L18.9163 31.9873L32.8683 23.9828" stroke="#139161" stroke-width="2" stroke-linecap="round" stroke-linejoin="round"/>
<path d="M23.4023 61.6176C23.3818 62.0075 23.2527 62.3842 23.0296 62.7057C22.8064 63.0272 22.4979 63.281 22.1382 63.4389C21.1426 63.9514 20.0376 64.2189 18.9161 64.2189C17.7946 64.2189 16.6896 63.9514 15.694 63.4389C14.7998 62.9338 14.4144 62.3675 14.4144 61.7094C14.4029 61.4011 14.4554 61.0938 14.5686 60.8064L16.5265 53.6743C16.8309 54.0002 17.1983 54.2618 17.6068 54.4436C18.0153 54.6253 18.4566 54.7233 18.9041 54.7319C19.3517 54.7405 19.7964 54.6594 20.2117 54.4934C20.627 54.3275 21.0043 54.0802 21.3211 53.7662L23.2482 60.8524C23.3322 61.0999 23.384 61.357 23.4023 61.6176Z" stroke="#139161" stroke-width="2" stroke-linecap="round" stroke-linejoin="round"/>
<path d="M22.3386 51.4092C22.3386 52.2941 21.9845 53.1428 21.3542 53.7685C20.7239 54.3942 19.8691 54.7457 18.9778 54.7457C18.0864 54.7457 17.2316 54.3942 16.6013 53.7685C15.971 53.1428 15.6169 52.2941 15.6169 51.4092C15.6169 50.5243 15.971 49.6757 16.6013 49.05C17.2316 48.4243 18.0864 48.0728 18.9778 48.0728C19.8691 48.0728 20.7239 48.4243 21.3542 49.05C21.9845 49.6757 22.3386 50.5243 22.3386 51.4092Z" stroke="#139161" stroke-width="2" stroke-linecap="round" stroke-linejoin="round"/>
<path d="M41.3166 19.1005C43.7062 20.478 43.7216 22.6972 41.3166 24.0746C39.9782 24.7459 38.4995 25.0956 37 25.0956C35.5004 25.0956 34.0218 24.7459 32.6833 24.0746C30.2937 22.6972 30.2937 20.478 32.6833 19.1158C34.0184 18.4351 35.4972 18.0787 36.9981 18.0761C38.499 18.0734 39.9791 18.4245 41.3166 19.1005Z" stroke="#139161" stroke-width="2" stroke-linecap="round" stroke-linejoin="round"/>
</g>
<defs>
<clipPath id="clip0_6281_1810">
<rect width="74" height="65" fill="white"/>
</clipPath>
</defs>
</svg>
