<svg width="66" height="80" viewBox="0 0 66 80" fill="none" xmlns="http://www.w3.org/2000/svg">
<path d="M38.3949 10.1092L21.599 19.9656C20.9041 19.0535 20.1526 18.1874 19.3491 17.3726C18.9481 15.4333 18.7306 13.4596 18.6995 11.4782C18.6995 3.11956 24.5305 -0.246452 31.6766 3.957C34.2809 5.5544 36.5612 7.64253 38.3949 10.1092Z" stroke="#139161" stroke-width="2" stroke-linecap="round" stroke-linejoin="round"/>
<path d="M21.5991 19.9656L20.1573 20.8191L19.3017 21.3184C17.8735 22.2642 16.6847 23.5386 15.8313 25.0383C14.9779 26.538 14.484 28.221 14.3896 29.9508V44.0589L14.0886 43.8818L10.2858 46.1204C5.34212 39.3562 1.84035 27.841 1.87204 21.3345C1.87204 12.992 7.70304 9.60991 14.8492 13.8134C16.4848 14.7969 17.9869 15.9935 19.3175 17.3726C20.1319 18.1864 20.8939 19.0525 21.5991 19.9656Z" stroke="#139161" stroke-width="2" stroke-linecap="round" stroke-linejoin="round"/>
<path d="M19.0323 53.0457C18.9255 53.1116 18.8248 53.187 18.7312 53.2711" stroke="#139161" stroke-width="2" stroke-linecap="round" stroke-linejoin="round"/>
<path d="M49.3757 10.7534C48.8152 10.5046 48.2008 10.408 47.5925 10.4729C46.9843 10.5378 46.403 10.7621 45.9056 11.1238L40.9619 13.9744L24.1662 23.8308L23.8967 23.9919C23.0965 24.4839 22.3796 25.1038 21.7735 25.8278C20.1044 27.7011 19.1198 30.1007 18.9848 32.6242V46.7485L14.3896 44.0267V29.9186C14.484 28.1887 14.9779 26.5058 15.8313 25.006C16.6847 23.5063 17.8736 22.232 19.3017 21.2862L20.1573 20.7869L21.5992 19.9334L38.395 10.0769L41.3581 8.3376C41.8577 7.96658 42.4457 7.7381 43.0614 7.6758C43.6771 7.61351 44.2981 7.71965 44.8599 7.98328L49.3757 10.7534Z" stroke="#139161" stroke-width="2" stroke-linecap="round" stroke-linejoin="round"/>
<path d="M54.5569 13.7489C54.399 13.6784 54.2344 13.6245 54.0657 13.5879C53.871 13.5633 53.6741 13.5633 53.4794 13.5879C52.6933 13.6184 51.9285 13.8571 51.2611 14.2804L43.1801 19.0153L29.1888 27.229C28.9115 27.3909 28.6467 27.574 28.3966 27.7766C28.1903 27.9294 27.9944 28.0961 27.8103 28.2758C27.6032 28.4622 27.4074 28.6612 27.224 28.8717C27.0339 29.0811 26.8437 29.3066 26.6694 29.532L26.4318 29.8541C26.2076 30.1638 26.0012 30.4864 25.8138 30.8204L25.7346 30.9654C25.6355 31.1264 25.5454 31.2931 25.4652 31.4646C25.4007 31.5849 25.3425 31.7085 25.2909 31.8351C25.1483 32.1088 25.0374 32.3987 24.9265 32.6725C24.8329 32.9254 24.7535 33.1835 24.6888 33.4456C24.6156 33.6546 24.5626 33.8703 24.5304 34.0898C24.5304 34.2508 24.5304 34.428 24.5304 34.589C24.5149 34.7228 24.5149 34.8579 24.5304 34.9917C24.5304 35.201 24.5304 35.4104 24.5304 35.6198V47.5376V63.7234V49.728L23.3103 49.0032L19.2539 46.6035V32.4793C19.3889 29.9557 20.3736 27.5561 22.0427 25.6829C22.6487 24.9588 23.3657 24.3389 24.166 23.8469L24.4353 23.6858L41.2311 13.8295L46.2223 10.8983C46.7009 10.6274 47.2348 10.4733 47.7821 10.4481C48.3293 10.4229 48.8748 10.5274 49.3755 10.7534L54.5569 13.7489Z" stroke="#139161" stroke-width="2" stroke-linecap="round" stroke-linejoin="round"/>
<path d="M61.7189 35.1367C61.6142 35.0823 61.5021 35.0443 61.3862 35.0239H61.2119H60.8316C60.1811 35.046 59.5476 35.2403 58.9936 35.5876L56.2524 37.1981V31.98L61.7189 35.1367Z" stroke="#139161" stroke-width="2" stroke-linecap="round" stroke-linejoin="round"/>
<path d="M58.8511 41.772L59.469 41.4499C59.2536 41.5373 59.0466 41.6451 58.8511 41.772ZM58.8511 41.772L56.2683 43.2859L55.793 43.5597" stroke="#139161" stroke-width="2" stroke-linecap="round" stroke-linejoin="round"/>
<path d="M63.0976 41.7881C62.9395 41.6402 62.77 41.5055 62.5906 41.3854L56.7595 38.1322C56.6068 38.0343 56.4415 37.9584 56.2683 37.9067V37.1981L59.0096 35.5876C59.5636 35.2403 60.1971 35.046 60.8476 35.0239H61.2278H61.4022C61.5181 35.0443 61.6302 35.0824 61.7349 35.1367C61.7349 35.1367 61.7349 35.1367 61.8141 35.1367C62.2546 35.4175 62.6086 35.8187 62.8356 36.2942C63.0625 36.7698 63.1533 37.3007 63.0976 37.8262V41.7881Z" stroke="#139161" stroke-width="2" stroke-linecap="round" stroke-linejoin="round"/>
<path d="M30.219 64.6736V73.1932L30.2031 73.2093L30.219 64.6736Z" stroke="#139161" stroke-width="2" stroke-linecap="round" stroke-linejoin="round"/>
<path d="M45.6997 49.4864L35.4162 55.5098L35.2261 55.6386C35.2814 55.5802 35.3456 55.5313 35.4162 55.4936L45.6997 49.4864Z" stroke="#139161" stroke-width="2" stroke-linecap="round" stroke-linejoin="round"/>
<path d="M56.2683 43.2698V43.2859L55.793 43.5597V43.5436L56.2683 43.2698Z" stroke="#139161" stroke-width="2" stroke-linecap="round" stroke-linejoin="round"/>
<path d="M56.7595 38.1322C56.6068 38.0343 56.4415 37.9584 56.2683 37.9067V31.964V17.1472C56.325 16.5224 56.2152 15.8936 55.9503 15.3268C55.6854 14.7601 55.2754 14.2762 54.7631 13.9261H54.6838C54.5259 13.8556 54.3613 13.8016 54.1926 13.7651C53.9979 13.7405 53.801 13.7405 53.6063 13.7651C52.8202 13.7956 52.0555 14.0343 51.3881 14.4576L43.307 19.1925L29.3158 27.4062C29.0385 27.5681 28.7737 27.7512 28.5236 27.9537L27.9372 28.453C27.7312 28.6463 27.5411 28.8395 27.351 29.0489C27.1608 29.2583 26.9707 29.4837 26.7964 29.7092L26.5587 30.0313C26.3345 30.341 26.1282 30.6637 25.9408 30.9976L25.8615 31.1426C25.7624 31.3036 25.6724 31.4703 25.5922 31.6418C25.5277 31.7621 25.4695 31.8858 25.4179 32.0123C25.2753 32.2861 25.1644 32.5759 25.0535 32.8497C24.9599 33.1026 24.8805 33.3607 24.8158 33.6228C24.7426 33.8318 24.6896 34.0476 24.6574 34.267C24.6574 34.4281 24.6574 34.6052 24.6574 34.7663C24.6419 34.9 24.6419 35.0351 24.6574 35.1689C24.6574 35.3783 24.6574 35.5876 24.6574 35.797V47.7149V63.9006V73.2577L26.0675 74.0951L26.1784 74.1757L31.8193 77.3967H31.7242C31.6184 77.3178 31.5226 77.2258 31.439 77.1229C31.1144 76.7459 30.8763 76.3004 30.7418 75.8184C30.676 75.5973 30.6283 75.3711 30.5993 75.142C30.5993 75.142 30.5993 75.0453 30.5993 75.0131C30.5745 74.7507 30.5745 74.4864 30.5993 74.224V64.8186C30.7297 61.7495 32.0447 58.8563 34.2595 56.766C34.4964 56.5381 34.745 56.323 35.0042 56.1218C35.1871 55.9619 35.3895 55.8266 35.6063 55.7191C35.6616 55.6608 35.7258 55.6118 35.7964 55.5741L46.0799 49.5508L56.1732 43.6241L56.6487 43.3503L59.2313 41.8364C59.4275 41.7151 59.6344 41.6127 59.8493 41.5304L60.4514 41.2888C60.9163 41.1362 61.407 41.0814 61.8934 41.1278H62.131C62.4246 41.1859 62.7078 41.2891 62.9708 41.4338L56.7595 38.1322ZM48.8369 29.6126C48.2136 30.5102 47.5022 31.3412 46.7137 32.0928C46.381 32.431 46.0323 32.7692 45.6679 33.0913C44.6633 33.9842 43.6049 34.8125 42.4989 35.5715C41.8017 36.0708 41.0728 36.5378 40.3281 36.9727C34.9566 40.1937 30.5834 40.6607 30.5834 38.1644C30.5834 35.6681 34.925 31.0943 40.2965 27.9377C41.6586 27.1299 43.0906 26.4506 44.5746 25.9084C47.7436 24.7327 50.0253 24.9582 50.0412 26.7459C49.9131 27.7704 49.5009 28.7367 48.8528 29.5321L48.8369 29.6126Z" stroke="#139161" stroke-width="2" stroke-linecap="round" stroke-linejoin="round"/>
<path d="M45.6997 49.4864L35.4162 55.5098L35.2261 55.6386C35.2814 55.5802 35.3456 55.5313 35.4162 55.4936L45.6997 49.4864Z" stroke="#139161" stroke-width="2" stroke-linecap="round" stroke-linejoin="round"/>
<path d="M58.8511 41.772L59.469 41.4499C59.2536 41.5373 59.0466 41.6451 58.8511 41.772ZM58.8511 41.772L56.2683 43.2859L55.793 43.5597" stroke="#139161" stroke-width="2" stroke-linecap="round" stroke-linejoin="round"/>
<path d="M58.8511 41.772L59.469 41.4499C59.2536 41.5373 59.0466 41.6451 58.8511 41.772ZM58.8511 41.772L56.2683 43.2859L55.793 43.5597" stroke="#139161" stroke-width="2" stroke-linecap="round" stroke-linejoin="round"/>
<path d="M64.0956 44.7837V54.2374C64.0033 56.0777 63.4827 57.8694 62.5764 59.4653C61.6702 61.0612 60.4042 62.4157 58.8826 63.4174L35.4477 77.1712C34.9028 77.5727 34.2595 77.8136 33.5886 77.8676C32.9177 77.9216 32.2452 77.7865 31.6449 77.4772H31.5498C31.4439 77.3983 31.3482 77.3064 31.2646 77.2035C30.94 76.8265 30.7019 76.3809 30.5674 75.899C30.5015 75.6779 30.4538 75.4516 30.4248 75.2225C30.4248 75.2225 30.4248 75.1259 30.4248 75.0937C30.4085 74.8309 30.4085 74.5673 30.4248 74.3045V64.8991C30.5552 61.83 31.8702 58.9368 34.085 56.8465C34.3219 56.6186 34.5705 56.4035 34.8298 56.2023C35.0127 56.0424 35.2151 55.9071 35.4319 55.7996L35.622 55.6708L45.9055 49.6475L55.9988 43.7207L56.4741 43.4469L59.0569 41.933L59.6749 41.611L60.277 41.3694C60.7419 41.2167 61.2325 41.1619 61.7189 41.2083H61.9566C62.2502 41.2664 62.5333 41.3696 62.7963 41.5143C62.9758 41.6344 63.1454 41.7691 63.3034 41.917C63.9096 42.7389 64.1921 43.7612 64.0956 44.7837Z" stroke="#139161" stroke-width="2" stroke-linecap="round" stroke-linejoin="round"/>
<path d="M45.6997 49.4864L35.4162 55.5098L35.2261 55.6386C35.2814 55.5802 35.3456 55.5313 35.4162 55.4936L45.6997 49.4864Z" stroke="#139161" stroke-width="2" stroke-linecap="round" stroke-linejoin="round"/>
<path d="M24.2927 49.9051L19.5392 52.6913L19.1272 52.9651H19.0321C18.9243 53.0355 18.8235 53.1164 18.7311 53.2067L18.335 53.561L17.9547 53.9475C17.5733 54.3457 17.2335 54.7828 16.9407 55.2521L16.6554 55.7352L16.386 56.2345C16.386 56.3794 16.2434 56.5405 16.1642 56.6854V56.7981C16.1642 56.9431 16.0533 57.1041 15.9899 57.2491C15.9265 57.394 15.8473 57.6839 15.7839 57.9094C15.711 58.1416 15.6528 58.3783 15.6096 58.618C15.6096 58.8113 15.6096 59.0045 15.6096 59.1978C15.6096 59.3911 15.6096 59.6165 15.6096 59.8098V67.8624V73.6764C15.5847 73.9227 15.5847 74.1709 15.6096 74.4172C15.6342 74.6382 15.6874 74.8548 15.7681 75.0614C15.799 75.1909 15.847 75.3155 15.9107 75.4319V75.5124C15.9658 75.6367 16.0408 75.7511 16.1326 75.8506C16.2362 75.9857 16.3529 76.1098 16.4811 76.221L6.59377 70.3426C6.18548 70.0355 5.86175 69.6268 5.65364 69.1558C5.44554 68.6848 5.36004 68.1673 5.40539 67.653V53.8348C5.48039 52.3901 5.88972 50.9837 6.60006 49.7301C7.31039 48.4764 8.3017 47.4107 9.49345 46.6196L10.4441 46.056L14.247 43.8174L14.548 43.9945L19.1431 46.7163L23.1994 49.116L24.2927 49.9051Z" stroke="#139161" stroke-width="2" stroke-linecap="round" stroke-linejoin="round"/>
<path d="M19.0323 53.0457C18.9255 53.1116 18.8248 53.187 18.7312 53.2711" stroke="#139161" stroke-width="2" stroke-linecap="round" stroke-linejoin="round"/>
<path d="M24.4035 73.2415V73.3221L19.65 76.1083C19.1998 76.459 18.6546 76.6609 18.0879 76.6868C17.5213 76.7128 16.9604 76.5614 16.481 76.2532C16.3528 76.142 16.2361 76.0179 16.1324 75.8828C16.046 75.7791 15.9715 75.6656 15.9106 75.5446V75.4641C15.8469 75.3477 15.7989 75.2231 15.7679 75.0937C15.6873 74.887 15.6341 74.6703 15.6095 74.4494C15.5927 74.2081 15.5927 73.966 15.6095 73.7247V67.8946V59.842C15.6095 59.6488 15.6095 59.4394 15.6095 59.23C15.6095 59.0207 15.6095 58.8435 15.6095 58.6502C15.6526 58.4105 15.7108 58.1738 15.7838 57.9416C15.7838 57.7161 15.9106 57.4907 15.9898 57.2813C16.069 57.072 16.1165 56.9753 16.1641 56.8303V56.7176C16.2433 56.5727 16.3067 56.4116 16.3859 56.2667L16.6552 55.7674L16.9405 55.2842C17.2334 54.815 17.5732 54.3778 17.9546 53.9797L18.3348 53.5932L18.731 53.2389C18.8245 53.1548 18.9253 53.0793 19.032 53.0134H19.1271L19.5391 52.7396L24.2926 49.9534V63.9489V73.306L24.4035 73.2415Z" stroke="#139161" stroke-width="2" stroke-linecap="round" stroke-linejoin="round"/>
<path d="M19.0323 53.0457C18.9255 53.1116 18.8248 53.187 18.7312 53.2711" stroke="#139161" stroke-width="2" stroke-linecap="round" stroke-linejoin="round"/>
<path d="M50.0251 26.6975C49.9104 27.7373 49.5033 28.7214 48.8526 29.5321C48.2293 30.4297 47.5179 31.2607 46.7294 32.0123C46.3967 32.3505 46.048 32.6887 45.6836 33.0108C44.679 33.9037 43.6206 34.732 42.5146 35.491C41.8174 35.9902 41.0885 36.4573 40.3438 36.8922C34.9723 40.1132 30.5991 40.5802 30.5991 38.0839C30.5991 35.5876 34.9407 31.0137 40.3122 27.8571C41.6743 27.0494 43.1063 26.3701 44.5903 25.8279C47.791 24.6844 50.0093 24.9099 50.0251 26.6975Z" stroke="#139161" stroke-width="2" stroke-linecap="round" stroke-linejoin="round"/>
<path d="M58.8827 51.4834L40.328 62.3705L35.4478 65.2373" stroke="#139161" stroke-width="2" stroke-linecap="round" stroke-linejoin="round"/>
<path d="M40.3281 62.3705V65.5916" stroke="#139161" stroke-width="2" stroke-linecap="round" stroke-linejoin="round"/>
</svg>
