<svg width="87" height="104" viewBox="0 0 87 104" fill="none" xmlns="http://www.w3.org/2000/svg">
<g clip-path="url(#clip0_6472_9646)">
<path d="M1.13953 59.2584L1.0957 41.08L15.6468 48.9884L15.8002 102.917L1.2491 94.9867L1.20527 78.4117" stroke="#139161" stroke-width="3" stroke-linecap="round" stroke-linejoin="round"/>
<path d="M1.18329 71.8683L1.16138 65.13" stroke="#139161" stroke-width="3" stroke-linecap="round" stroke-linejoin="round"/>
<path d="M1.0957 41.08L43.3247 16.9867L43.3028 33.215L15.6468 48.9884L1.0957 41.08Z" stroke="#139161" stroke-width="3" stroke-linecap="round" stroke-linejoin="round"/>
<path d="M85.7509 8.99165L58.3579 24.635L58.3798 8.38498L71.1778 1.08331L85.7509 8.99165Z" stroke="#139161" stroke-width="3" stroke-linecap="round" stroke-linejoin="round"/>
<path d="M85.9044 62.8983L15.8223 102.917L15.647 48.9883L43.3029 33.215L43.281 39.3683L58.3361 30.7666L58.3581 24.635L85.751 8.99164L85.7948 21.2333L85.9044 62.8983Z" stroke="#139161" stroke-width="3" stroke-linecap="round" stroke-linejoin="round"/>
<path d="M22.3088 66.56L47.4884 52.195L47.6199 77.155L22.4403 91.52L22.3088 66.56Z" stroke="#139161" stroke-width="3" stroke-linecap="round" stroke-linejoin="round"/>
<path d="M85.9044 21.1683L85.7948 21.2333L15.8223 61.165L15.647 48.9883L43.3029 33.215L43.281 39.3683L58.3361 30.7666L58.3581 24.635L85.751 8.99164L85.9044 21.1683Z" stroke="#139161" stroke-width="3" stroke-linecap="round" stroke-linejoin="round"/>
<path d="M77.6207 38.22L54.5229 51.3933" stroke="#139161" stroke-width="3" stroke-linecap="round" stroke-linejoin="round"/>
<path d="M77.6207 48.75L54.5229 61.945" stroke="#139161" stroke-width="3" stroke-linecap="round" stroke-linejoin="round"/>
<path d="M67.4086 65.13L54.5229 72.475" stroke="#139161" stroke-width="3" stroke-linecap="round" stroke-linejoin="round"/>
<path d="M35.4793 76.0067C39.402 73.84 42.5796 75.5734 42.5796 80.015L27.2395 88.6817C27.3646 86.2613 28.0695 83.9048 29.2964 81.8066C30.5232 79.7084 32.2368 77.9284 34.2959 76.6134L35.4793 76.0067Z" stroke="#139161" stroke-width="3" stroke-linecap="round" stroke-linejoin="round"/>
<path d="M34.9096 64.3933C36.8161 63.31 38.3719 64.1767 38.3719 66.3433C38.3093 67.5243 37.965 68.6739 37.367 69.6982C36.7691 70.7224 35.9345 71.5923 34.9315 72.2367C33.025 73.3417 31.469 72.4533 31.469 70.2867C31.5317 69.1057 31.8761 67.9561 32.474 66.9318C33.072 65.9076 33.9066 65.0377 34.9096 64.3933Z" stroke="#139161" stroke-width="3" stroke-linecap="round" stroke-linejoin="round"/>
<path d="M62.3245 28.4916L39.2268 41.665" stroke="#139161" stroke-width="3" stroke-linecap="round" stroke-linejoin="round"/>
<path d="M50.8195 2.99001C54.9832 0.606673 58.3579 2.51334 58.3799 7.32334V30.8533L43.3247 39.52V15.99C43.4326 13.3887 44.1694 10.8509 45.4733 8.58905C46.7773 6.32722 48.6106 4.40726 50.8195 2.99001Z" stroke="#139161" stroke-width="3" stroke-linecap="round" stroke-linejoin="round"/>
</g>
<defs>
<clipPath id="clip0_6472_9646">
<rect width="87" height="104" fill="white"/>
</clipPath>
</defs>
</svg>
