<svg width="94" height="94" viewBox="0 0 94 94" fill="none" xmlns="http://www.w3.org/2000/svg">
<g clip-path="url(#clip0_6472_9613)">
<path d="M56.6833 62.5296V62.51L67.2328 56.4392L82.9191 47.4113" stroke="#139161" stroke-width="3" stroke-linecap="round" stroke-linejoin="round"/>
<path d="M66.7998 43.5729L73.0783 39.95L85.8124 32.6258" stroke="#139161" stroke-width="3" stroke-linecap="round" stroke-linejoin="round"/>
<path d="M69.5356 28.8658L74.0428 26.2808L82.7027 21.287" stroke="#139161" stroke-width="3" stroke-linecap="round" stroke-linejoin="round"/>
<path d="M44.1854 74.7104C43.2407 75.3762 42.2173 75.9833 41.2922 76.5512C42.2763 75.9898 43.2407 75.3762 44.1854 74.7104Z" stroke="#139161" stroke-width="3" stroke-linecap="round" stroke-linejoin="round"/>
<path d="M84.3364 12.3571L83.8443 12.1025C83.287 11.8421 82.7153 11.6133 82.132 11.417L81.2069 11.1429L80.2622 10.9275L79.2388 10.7708H78.2744H77.2706C73.2211 10.894 69.2626 11.9963 65.7371 13.9825C64.5589 12.2987 63.028 10.889 61.2497 9.8504L55.3452 6.42332C62.1748 3.21165 68.3154 3.17248 72.8816 5.83581L84.3364 12.3571Z" stroke="#139161" stroke-width="3" stroke-linecap="round" stroke-linejoin="round"/>
<path d="M87.8395 52.405L92.8191 63.5871L80.0259 65.5454C75.8941 71.1438 70.6984 75.8811 64.7332 79.4888C54.1838 85.54 45.0515 84.2475 40.072 77.315L41.2726 76.6492C42.2567 76.0747 43.2211 75.4676 44.1659 74.8279L45.5829 73.8096C46.5079 73.1046 47.433 72.3604 48.3384 71.5771C49.6964 70.4021 50.9954 69.1292 52.2747 67.7975C53.121 66.8967 53.9477 65.9567 54.7349 65.0167C55.3648 64.2725 55.9552 63.5088 56.5653 62.7254C58.262 60.485 59.8198 58.1437 61.2299 55.7146C61.8597 54.6179 62.4698 53.5017 63.0406 52.3854C63.6114 51.2692 64.3396 49.7613 64.8907 48.4688C65.3237 47.4896 65.7173 46.5104 66.0912 45.5117C67.3735 42.1051 68.3227 38.5833 68.9254 34.9954C69.1025 33.8204 69.2601 32.665 69.3585 31.5292C69.4569 30.3933 69.4963 29.1792 69.4963 28.0238C69.5216 25.3471 69.1839 22.6793 68.4925 20.0925C68.028 18.4468 67.3672 16.8623 66.5243 15.3729C66.2587 14.9146 65.9696 14.4701 65.6583 14.0413C69.1838 12.0551 73.1423 10.9528 77.1918 10.8296H78.1955H79.1599L80.1834 10.9863L81.1281 11.2017L82.0532 11.4758C82.6365 11.6721 83.2082 11.9009 83.7655 12.1612L84.2576 12.4158C89.5716 15.275 92.8782 21.62 92.9176 30.7458C92.7702 38.24 91.04 45.6195 87.8395 52.405Z" stroke="#139161" stroke-width="3" stroke-linecap="round" stroke-linejoin="round"/>
<path d="M13.2066 93.0208L1.35815 86.1667L6.25891 69.3054L18.1073 76.1596L13.2066 93.0208Z" stroke="#139161" stroke-width="3" stroke-linecap="round" stroke-linejoin="round"/>
<path d="M19.7998 12.0437C20.9807 10.8883 22.2206 9.77206 23.4803 8.75372" stroke="#139161" stroke-width="3" stroke-linecap="round" stroke-linejoin="round"/>
<path d="M29.2471 4.83707C37.1198 0.332902 44.2643 -0.0979311 49.4209 2.87874L61.2299 9.7133C56.093 6.75622 48.9682 7.16747 41.0759 11.6716C25.3305 20.6604 12.7538 42.4762 12.7932 60.395C12.7932 67.3666 14.7614 72.7129 18.0876 76.0616L6.27855 69.1879C2.9917 65.8 1.04312 60.4537 1.02344 53.5212C1.02344 40.9683 7.16414 26.5158 16.2768 15.8821" stroke="#139161" stroke-width="3" stroke-linecap="round" stroke-linejoin="round"/>
<path d="M41.0956 11.6912C51.6253 5.63998 60.7773 6.93246 65.7568 13.865C68.4231 18.0319 69.7419 22.9119 69.5356 27.8475C69.5356 45.7467 56.959 67.5625 41.2924 76.5512L40.0721 77.2171C35.8141 79.7185 30.8551 80.7768 25.9406 80.2329L13.2065 93.0208L18.1072 76.1596C14.8007 72.7521 12.8522 67.4058 12.8325 60.4929C12.8719 42.5154 25.4289 20.6996 41.0956 11.6912Z" stroke="#139161" stroke-width="3" stroke-linecap="round" stroke-linejoin="round"/>
<path d="M25.6257 48.4492C28.6173 46.7258 31.0776 48.1163 31.0973 51.5825C30.9934 53.4628 30.4479 55.2927 29.5045 56.9252C28.5611 58.5577 27.2461 59.9473 25.6651 60.9825C22.6341 62.7058 20.1542 61.3154 20.1345 57.8687C20.2404 55.9795 20.7928 54.1418 21.747 52.505C22.7012 50.8682 24.0301 49.4786 25.6257 48.4492Z" stroke="#139161" stroke-width="3" stroke-linecap="round" stroke-linejoin="round"/>
<path d="M41.1939 39.4604C44.1855 37.7567 46.6457 39.1275 46.6654 42.5938C46.5615 44.4741 46.016 46.3039 45.0726 47.9364C44.1292 49.5689 42.8142 50.9585 41.2332 51.9937C38.2022 53.7366 35.7223 52.3267 35.7026 48.88C35.8085 46.9907 36.3611 45.153 37.3152 43.5162C38.2694 41.8795 39.5983 40.4899 41.1939 39.4604Z" stroke="#139161" stroke-width="3" stroke-linecap="round" stroke-linejoin="round"/>
<path d="M56.7622 30.5696C59.7538 28.8462 62.2141 30.2171 62.2337 33.6833C62.1299 35.5636 61.5844 37.3935 60.641 39.026C59.6976 40.6585 58.3825 42.0481 56.8016 43.0833C53.7706 44.8263 51.2907 43.4162 51.271 39.9892C51.3769 38.0999 51.9293 36.2622 52.8835 34.6254C53.8376 32.9886 55.1665 31.599 56.7622 30.5696Z" stroke="#139161" stroke-width="3" stroke-linecap="round" stroke-linejoin="round"/>
</g>
<defs>
<clipPath id="clip0_6472_9613">
<rect width="94" height="94" fill="white"/>
</clipPath>
</defs>
</svg>
