<svg width="152" height="40" viewBox="0 0 152 40" fill="none" xmlns="http://www.w3.org/2000/svg">
<g clip-path="url(#clip0_6588_8112)">
<path d="M35.9348 39.8778C35.6579 39.8785 35.3837 39.8249 35.1277 39.72C34.8717 39.6152 34.639 39.4612 34.4429 39.2668L26.3748 31.2424C26.0084 30.8431 25.8109 30.3188 25.8233 29.7783C25.8357 29.2379 26.0571 28.7231 26.4414 28.3409C26.8257 27.9586 27.3433 27.7385 27.8867 27.7261C28.43 27.7138 28.9572 27.9103 29.3587 28.2747L37.4267 36.2991C37.7223 36.5921 37.9237 36.9658 38.0054 37.3729C38.0871 37.7799 38.0454 38.2019 37.8856 38.5853C37.7257 38.9687 37.455 39.2963 37.1077 39.5264C36.7603 39.7565 36.3521 39.8788 35.9348 39.8778Z" fill="#55499E"/>
<path d="M20.1087 40C16.1316 40 12.2438 38.827 8.93691 36.6294C5.63006 34.4318 3.05267 31.3082 1.53069 27.6537C0.00871285 23.9992 -0.389507 19.9778 0.386392 16.0982C1.16229 12.2186 3.07746 8.65492 5.88971 5.85787C8.70196 3.06082 12.285 1.15601 16.1857 0.384303C20.0864 -0.387401 24.1296 0.00866576 27.804 1.52242C31.4784 3.03617 34.6189 5.59962 36.8285 8.8886C39.0381 12.1776 40.2174 16.0444 40.2174 20C40.2112 25.3024 38.0906 30.3859 34.3209 34.1353C30.5511 37.8847 25.44 39.9938 20.1087 40ZM20.1087 4.19553C16.9659 4.19553 13.8936 5.12244 11.2805 6.85906C8.66733 8.59568 6.63062 11.064 5.42791 13.9519C4.22521 16.8398 3.91053 20.0175 4.52366 23.0833C5.13679 26.1491 6.65021 28.9652 8.87252 31.1755C11.0948 33.3858 13.9262 34.891 17.0087 35.5008C20.0911 36.1106 23.2861 35.7976 26.1897 34.6014C29.0933 33.4052 31.575 31.3795 33.3211 28.7805C35.0671 26.1815 35.9991 23.1258 35.9991 20C35.996 15.8093 34.3208 11.7912 31.3415 8.82796C28.3621 5.86471 24.3222 4.19861 20.1087 4.19553Z" fill="#55499E"/>
<path d="M23.7243 6.99438H6.96804C6.40788 6.99438 5.87067 7.2157 5.47457 7.60966C5.07848 8.00361 4.85596 8.53792 4.85596 9.09505C4.85596 9.65219 5.07848 10.1865 5.47457 10.5805C5.87067 10.9744 6.40788 11.1957 6.96804 11.1957H13.2341V25.7433C13.2341 26.3004 13.4566 26.8347 13.8527 27.2287C14.2488 27.6226 14.786 27.844 15.3462 27.844C15.9063 27.844 16.4436 27.6226 16.8397 27.2287C17.2357 26.8347 17.4583 26.3004 17.4583 25.7433V11.1957H23.7243C24.2845 11.1957 24.8217 10.9744 25.2178 10.5805C25.6139 10.1865 25.8364 9.65219 25.8364 9.09505C25.8364 8.53792 25.6139 8.00361 25.2178 7.60966C24.8217 7.2157 24.2845 6.99438 23.7243 6.99438Z" fill="#55499E"/>
<path d="M30.1016 21.315H23.8355V17.1835H30.1016C30.6617 17.1835 31.199 16.9622 31.5951 16.5682C31.9912 16.1743 32.2137 15.64 32.2137 15.0828C32.2137 14.5257 31.9912 13.9914 31.5951 13.5975C31.199 13.2035 30.6617 12.9822 30.1016 12.9822H21.7469C21.1867 12.9822 20.6495 13.2035 20.2534 13.5975C19.8573 13.9914 19.6348 14.5257 19.6348 15.0828V31.2016C19.6348 31.7587 19.8573 32.293 20.2534 32.687C20.6495 33.0809 21.1867 33.3022 21.7469 33.3022C22.307 33.3022 22.8442 33.0809 23.2403 32.687C23.6364 32.293 23.8589 31.7587 23.8589 31.2016V25.5164H30.1016C30.6617 25.5164 31.199 25.295 31.5951 24.9011C31.9912 24.5071 32.2137 23.9728 32.2137 23.4157C32.2137 22.8586 31.9912 22.3243 31.5951 21.9303C31.199 21.5363 30.6617 21.315 30.1016 21.315Z" fill="#55499E"/>
<path d="M51.3747 10.4975H53.674V17.8818C53.674 18.243 53.8182 18.5893 54.075 18.8447C54.3317 19.1 54.6799 19.2435 55.043 19.2435H55.242C55.605 19.2435 55.9533 19.1 56.21 18.8447C56.4668 18.5893 56.611 18.243 56.611 17.8818V10.4975H58.9162C59.2793 10.4975 59.6275 10.354 59.8842 10.0987C60.141 9.8433 60.2852 9.49696 60.2852 9.13582C60.2852 8.77469 60.141 8.42835 59.8842 8.17299C59.6275 7.91763 59.2793 7.77417 58.9162 7.77417H51.3747C51.0116 7.77417 50.6633 7.91763 50.4066 8.17299C50.1499 8.42835 50.0056 8.77469 50.0056 9.13582C50.0056 9.49696 50.1499 9.8433 50.4066 10.0987C50.6633 10.354 51.0116 10.4975 51.3747 10.4975Z" fill="#55499E"/>
<path d="M63.5323 18.359C64.3252 18.9782 65.3161 19.2923 66.323 19.2435H69.4473C69.7934 19.2435 70.1256 19.108 70.372 18.8662C70.6183 18.6244 70.7591 18.2959 70.7637 17.9517V16.5143H66.6682C66.4936 16.5146 66.3193 16.499 66.1475 16.4678C66.0102 16.4364 65.8795 16.3812 65.7614 16.3049C65.6531 16.2298 65.5696 16.1245 65.5215 16.0023C65.4504 15.8349 65.4165 15.6543 65.422 15.4727V14.8908H70.3073V12.1326H65.3811V10.4975H70.6467V9.08345C70.6467 8.73621 70.508 8.40319 70.2611 8.15765C70.0142 7.91211 69.6794 7.77417 69.3303 7.77417H63.7488C63.3996 7.77417 63.0648 7.91211 62.8179 8.15765C62.571 8.40319 62.4324 8.73621 62.4324 9.08345V15.624C62.4002 16.1325 62.4822 16.6418 62.6724 17.1148C62.8627 17.5878 63.1564 18.0128 63.5323 18.359Z" fill="#55499E"/>
<path d="M80.9613 8.60059C80.865 8.35957 80.6979 8.15297 80.4819 8.00768C80.2659 7.86238 80.011 7.78511 79.7502 7.78592H78.3577C78.0945 7.78398 77.8368 7.86056 77.6178 8.00578C77.3988 8.151 77.2285 8.35819 77.1291 8.60059L73.3437 17.7481C73.2756 17.914 73.2491 18.094 73.2664 18.2724C73.2837 18.4508 73.3444 18.6223 73.4432 18.7723C73.5435 18.9213 73.6793 19.0435 73.8386 19.1277C73.9978 19.212 74.1755 19.2558 74.3559 19.2552H75.9999L76.743 17.2186H81.3299L82.1548 19.2436H83.7169C83.8966 19.2436 84.0734 19.1996 84.2319 19.1155C84.3904 19.0314 84.5256 18.9098 84.6257 18.7615C84.7257 18.6131 84.7875 18.4425 84.8055 18.2647C84.8235 18.087 84.7973 17.9076 84.7291 17.7423L80.9613 8.60059ZM80.189 14.4953H77.7142L78.8843 11.2832L80.189 14.4953Z" fill="#55499E"/>
<path d="M96.5827 16.1246C96.4947 15.9742 96.3682 15.8498 96.2161 15.7639C96.064 15.678 95.8917 15.6338 95.7168 15.6358H94.3594C94.2015 15.6337 94.0455 15.6691 93.904 15.7389C93.7626 15.8087 93.64 15.911 93.5462 16.0373C93.426 16.2014 93.2798 16.3448 93.1132 16.4621C92.7631 16.6788 92.355 16.7844 91.9431 16.7647C91.5121 16.7751 91.0836 16.6958 90.6852 16.5319C90.3379 16.3846 90.028 16.162 89.7783 15.8802C89.5172 15.5872 89.3182 15.2448 89.1933 14.8735C89.0608 14.4557 88.9956 14.0197 89.0002 13.5817C88.9935 13.1126 89.0606 12.6453 89.1991 12.1968C89.3197 11.8131 89.5189 11.4584 89.7842 11.1552C90.0334 10.8671 90.3429 10.6367 90.6911 10.4801C91.0866 10.3052 91.5162 10.2197 91.9489 10.2299C92.3626 10.2006 92.7743 10.3091 93.1191 10.5383C93.2648 10.6483 93.3947 10.7775 93.5052 10.9224C93.599 11.0536 93.7226 11.161 93.8659 11.2358C94.0093 11.3106 94.1683 11.3508 94.3302 11.353H95.7051C95.8791 11.3538 96.0503 11.3098 96.2021 11.2251C96.3538 11.1405 96.4809 11.0181 96.571 10.87C96.656 10.7189 96.7007 10.5486 96.7007 10.3754C96.7007 10.2022 96.656 10.0319 96.571 9.88079C96.571 9.84005 96.53 9.80514 96.5125 9.77023C96.2471 9.32481 95.8903 8.94012 95.4652 8.64134C94.9945 8.29928 94.4708 8.0359 93.9148 7.86159C93.2711 7.66155 92.5998 7.56337 91.9255 7.57063C91.0829 7.55569 90.2451 7.69983 89.4566 7.99542C88.7571 8.262 88.1258 8.67932 87.6078 9.21742C87.0884 9.75678 86.6896 10.3993 86.4376 11.1028C86.1666 11.8849 86.034 12.7079 86.0456 13.5351C86.0349 14.3528 86.1675 15.1661 86.4376 15.9384C86.6897 16.6401 87.0885 17.2807 87.6078 17.8179C88.1289 18.3523 88.7594 18.769 89.4566 19.0399C90.2451 19.3355 91.0829 19.4797 91.9255 19.4647C92.6019 19.4737 93.2753 19.3755 93.9206 19.1738C94.4846 19.0004 95.0149 18.7328 95.4886 18.3824C95.9137 18.0677 96.2717 17.6721 96.5417 17.2186L96.6002 17.1138C96.6843 16.9618 96.7269 16.7904 96.7238 16.6169C96.7207 16.4434 96.6721 16.2737 96.5827 16.1246Z" fill="#55499E"/>
<path d="M110.285 17.7829V9.22315C110.252 8.85978 110.084 8.52174 109.813 8.27555C109.542 8.02935 109.189 7.89282 108.822 7.89282C108.455 7.89282 108.102 8.02935 107.831 8.27555C107.56 8.52174 107.392 8.85978 107.359 9.22315V12.2199H102.445V9.22315C102.463 9.02117 102.439 8.81764 102.373 8.62552C102.308 8.43339 102.203 8.25689 102.066 8.10724C101.928 7.95759 101.761 7.83808 101.574 7.75632C101.388 7.67455 101.186 7.63232 100.982 7.63232C100.778 7.63232 100.577 7.67455 100.39 7.75632C100.203 7.83808 100.036 7.95759 99.8985 8.10724C99.7609 8.25689 99.6561 8.43339 99.5909 8.62552C99.5257 8.81764 99.5013 9.02117 99.5195 9.22315V17.7829C99.5013 17.9849 99.5257 18.1884 99.5909 18.3806C99.6561 18.5727 99.7609 18.7492 99.8985 18.8988C100.036 19.0485 100.203 19.168 100.39 19.2498C100.577 19.3315 100.778 19.3738 100.982 19.3738C101.186 19.3738 101.388 19.3315 101.574 19.2498C101.761 19.168 101.928 19.0485 102.066 18.8988C102.203 18.7492 102.308 18.5727 102.373 18.3806C102.439 18.1884 102.463 17.9849 102.445 17.7829V14.9549H107.359V17.7829C107.392 18.1463 107.56 18.4843 107.831 18.7305C108.102 18.9767 108.455 19.1133 108.822 19.1133C109.189 19.1133 109.542 18.9767 109.813 18.7305C110.084 18.4843 110.252 18.1463 110.285 17.7829Z" fill="#55499E"/>
<path d="M121.465 17.7829V15.3215H124.601C124.95 15.3215 125.285 15.1836 125.532 14.938C125.779 14.6925 125.918 14.3595 125.918 14.0122V12.5982H121.465V11.2947C121.455 11.0846 121.521 10.8778 121.653 10.7128C121.742 10.6367 121.847 10.5798 121.959 10.5457C122.072 10.5117 122.191 10.5012 122.308 10.515H126.269V9.0835C126.269 8.73626 126.13 8.40324 125.883 8.1577C125.636 7.91216 125.301 7.77422 124.952 7.77422H122.109C121.625 7.7406 121.139 7.80586 120.681 7.96597C120.223 8.12609 119.803 8.37768 119.447 8.70526C119.134 9.04063 118.892 9.43466 118.734 9.86431C118.576 10.294 118.506 10.7506 118.528 11.2074V17.7829C118.51 17.9849 118.534 18.1885 118.6 18.3806C118.665 18.5727 118.77 18.7492 118.907 18.8989C119.045 19.0485 119.212 19.168 119.399 19.2498C119.585 19.3315 119.787 19.3738 119.991 19.3738C120.195 19.3738 120.397 19.3315 120.583 19.2498C120.77 19.168 120.937 19.0485 121.075 18.8989C121.212 18.7492 121.317 18.5727 121.382 18.3806C121.448 18.1885 121.472 17.9849 121.454 17.7829H121.465Z" fill="#55499E"/>
<path d="M151.906 18.2601L150.151 15.4087C150.684 15.0435 151.112 14.546 151.392 13.9656C151.652 13.4242 151.801 12.8367 151.831 12.2374C151.862 11.6381 151.772 11.0387 151.567 10.4742C151.377 9.9679 151.087 9.50482 150.713 9.11254C150.316 8.70032 149.838 8.37353 149.309 8.1524C148.684 7.90303 148.016 7.78228 147.343 7.79744H146.284C145.801 7.76428 145.316 7.82978 144.859 7.98989C144.402 8.15 143.983 8.40135 143.628 8.72848C143.315 9.06385 143.073 9.45789 142.915 9.88753C142.757 10.3172 142.687 10.7738 142.709 11.2307V17.8062C142.742 18.1695 142.91 18.5076 143.181 18.7538C143.452 19 143.805 19.1365 144.172 19.1365C144.539 19.1365 144.892 19 145.163 18.7538C145.434 18.5076 145.602 18.1695 145.635 17.8062V16.2409H147.39L148.776 18.6848C148.868 18.8582 149.005 19.0038 149.173 19.1062C149.341 19.2086 149.533 19.2641 149.73 19.2667H151.316C151.434 19.2699 151.552 19.2407 151.655 19.1822C151.758 19.1237 151.843 19.0383 151.901 18.9351C151.965 18.8343 151.999 18.7177 152 18.5984C152.001 18.4791 151.969 18.3619 151.906 18.2601ZM149.022 12.0162C149.023 12.2042 148.985 12.3904 148.911 12.5632C148.839 12.7433 148.731 12.9075 148.595 13.0462C148.442 13.1933 148.261 13.3081 148.063 13.3837C147.822 13.4764 147.566 13.5219 147.308 13.5175H145.658V11.2947C145.647 11.0845 145.714 10.8777 145.845 10.7128C145.934 10.6365 146.037 10.5794 146.149 10.5454C146.261 10.5113 146.378 10.5009 146.495 10.5149H147.308C147.566 10.5106 147.822 10.556 148.063 10.6488C148.262 10.7249 148.444 10.8418 148.595 10.9921C148.734 11.1288 148.841 11.2935 148.911 11.4751C148.982 11.647 149.019 11.8305 149.022 12.0162Z" fill="#55499E"/>
<path d="M69.1373 23.2238C69.0377 22.9851 68.8698 22.7806 68.6546 22.6358C68.4393 22.491 68.186 22.4122 67.9262 22.4092H66.8146C66.5624 22.413 66.3167 22.4884 66.1062 22.6266C65.8958 22.7647 65.7295 22.9599 65.6269 23.1889L62.3095 31.2075C62.2407 31.3736 62.2144 31.5541 62.2327 31.7328C62.2511 31.9115 62.3137 32.0829 62.4149 32.2317C62.5135 32.3811 62.6481 32.5035 62.8065 32.5879C62.9649 32.6723 63.142 32.7158 63.3217 32.7147H64.6791L65.3285 30.8933H69.4239L70.167 32.7147H71.4424C71.622 32.7147 71.7989 32.6707 71.9574 32.5866C72.1159 32.5025 72.2511 32.3809 72.3511 32.2325C72.4512 32.0842 72.5129 31.9136 72.531 31.7358C72.549 31.5581 72.5228 31.3786 72.4546 31.2134L69.1373 23.2238ZM68.3767 28.4261H66.2119L67.2299 25.6271L68.3767 28.4261Z" fill="#55499E"/>
<path d="M81.8858 30.2472H77.9776L82.5938 24.9344C82.7942 24.71 82.9046 24.42 82.9039 24.1198V23.6252C82.9039 23.2949 82.772 22.9781 82.5371 22.7446C82.3023 22.5111 81.9839 22.3799 81.6518 22.3799H75.69C75.3579 22.3799 75.0395 22.5111 74.8047 22.7446C74.5699 22.9781 74.438 23.2949 74.438 23.6252C74.438 23.9554 74.5699 24.2722 74.8047 24.5057C75.0395 24.7392 75.3579 24.8704 75.69 24.8704H79.3408L74.7246 30.1716C74.53 30.399 74.4222 30.6875 74.4204 30.9862V31.4692C74.4204 31.7995 74.5523 32.1162 74.7871 32.3497C75.0219 32.5833 75.3404 32.7145 75.6724 32.7145H81.8858C82.2179 32.7145 82.5364 32.5833 82.7712 32.3497C83.006 32.1162 83.1379 31.7995 83.1379 31.4692C83.1379 31.1389 83.006 30.8222 82.7712 30.5887C82.5364 30.3551 82.2179 30.2239 81.8858 30.2239V30.2472Z" fill="#55499E"/>
<path d="M91.8845 23.2236C91.7849 22.9849 91.6171 22.7804 91.4018 22.6356C91.1865 22.4908 90.9333 22.412 90.6734 22.409H89.5618C89.3047 22.4072 89.0526 22.48 88.8365 22.6185C88.6203 22.757 88.4495 22.9551 88.3448 23.1887L85.0275 31.2073C84.9596 31.373 84.9335 31.5526 84.9516 31.7306C84.9697 31.9086 85.0314 32.0794 85.1313 32.2281C85.2312 32.3769 85.3663 32.499 85.5246 32.5838C85.683 32.6686 85.8598 32.7134 86.0397 32.7145H87.397L88.0465 30.8931H92.1419L92.8849 32.7145H94.1604C94.34 32.7145 94.5169 32.6705 94.6753 32.5864C94.8338 32.5023 94.9691 32.3807 95.0691 32.2323C95.1691 32.084 95.2309 31.9134 95.2489 31.7356C95.267 31.5579 95.2407 31.3784 95.1725 31.2132L91.8845 23.2236ZM91.1063 28.4258H88.9533L89.9713 25.6269L91.1063 28.4258Z" fill="#55499E"/>
<path d="M116.744 27.1574C116.278 26.9363 115.787 26.7703 115.281 26.6628C114.772 26.5522 114.304 26.4417 113.871 26.3369C113.512 26.2476 113.164 26.1167 112.836 25.947C112.736 25.8999 112.652 25.8257 112.593 25.733C112.534 25.6404 112.503 25.533 112.502 25.4233C112.494 25.292 112.522 25.161 112.583 25.0442C112.644 24.9274 112.735 24.8292 112.847 24.76C113.182 24.5733 113.564 24.4865 113.947 24.5097C114.335 24.4825 114.721 24.5805 115.047 24.789C115.17 24.8823 115.275 24.9966 115.357 25.1266C115.453 25.2775 115.585 25.4024 115.741 25.4898C115.897 25.5772 116.073 25.6243 116.253 25.627H116.797C116.976 25.6277 117.152 25.5825 117.309 25.4959C117.466 25.4093 117.598 25.2841 117.692 25.1324C117.786 24.984 117.84 24.814 117.85 24.6388C117.859 24.4635 117.823 24.2888 117.744 24.1315C117.551 23.739 117.276 23.3919 116.937 23.1132C116.567 22.8162 116.144 22.5911 115.691 22.4498C115.146 22.2779 114.577 22.1954 114.006 22.2054C113.439 22.2022 112.874 22.2746 112.327 22.4207C111.834 22.5468 111.37 22.7639 110.958 23.0608C110.576 23.3336 110.261 23.6899 110.039 24.1024C109.809 24.5403 109.693 25.0283 109.7 25.5222C109.673 26.117 109.839 26.7045 110.174 27.1981C110.482 27.6117 110.882 27.9483 111.344 28.1815C111.808 28.4185 112.302 28.5927 112.812 28.6994C113.321 28.8158 113.795 28.9147 114.234 29.002C114.596 29.0683 114.95 29.1756 115.287 29.3221C115.568 29.4443 115.603 29.6014 115.603 29.7061C115.616 29.8424 115.588 29.9794 115.523 30.0997C115.457 30.22 115.357 30.318 115.235 30.3811C114.831 30.5551 114.392 30.6328 113.953 30.6081C113.476 30.6305 113.001 30.5387 112.567 30.3404C112.388 30.2522 112.235 30.12 112.122 29.9563C112.027 29.8054 111.895 29.6805 111.738 29.5931C111.582 29.5057 111.406 29.4586 111.227 29.4559H110.823C110.641 29.4559 110.463 29.503 110.305 29.5925C110.147 29.6821 110.015 29.811 109.922 29.9666C109.829 30.1222 109.779 30.2991 109.776 30.48C109.773 30.6608 109.817 30.8393 109.905 30.9979C110.12 31.4016 110.424 31.7517 110.794 32.0221C111.197 32.3208 111.651 32.5454 112.134 32.6855C112.714 32.8573 113.318 32.9397 113.924 32.9299C115.079 32.997 116.225 32.6952 117.195 32.0687C117.576 31.785 117.882 31.413 118.086 30.9851C118.289 30.5571 118.385 30.0861 118.365 29.613C118.395 29.055 118.225 28.5045 117.885 28.0593C117.573 27.6819 117.184 27.3745 116.744 27.1574Z" fill="#55499E"/>
<path d="M127.714 22.3975H120.945C120.613 22.3975 120.294 22.5287 120.059 22.7622C119.825 22.9957 119.693 23.3125 119.693 23.6427C119.693 23.973 119.825 24.2897 120.059 24.5233C120.294 24.7568 120.613 24.888 120.945 24.888H122.992V31.4926C122.992 31.8219 123.123 32.1377 123.357 32.3711C123.591 32.6045 123.908 32.7363 124.239 32.7379H124.42C124.752 32.7379 125.07 32.6067 125.305 32.3731C125.54 32.1396 125.672 31.8229 125.672 31.4926V24.888H127.714C128.046 24.888 128.364 24.7568 128.599 24.5233C128.834 24.2897 128.966 23.973 128.966 23.6427C128.966 23.3125 128.834 22.9957 128.599 22.7622C128.364 22.5287 128.046 22.3975 127.714 22.3975Z" fill="#55499E"/>
<path d="M136.706 23.2236C136.608 22.9844 136.44 22.7796 136.224 22.6347C136.009 22.4898 135.755 22.4113 135.495 22.409H134.384C134.127 22.4072 133.875 22.48 133.659 22.6185C133.442 22.757 133.272 22.9551 133.167 23.1887L129.85 31.2073C129.782 31.373 129.756 31.5526 129.774 31.7306C129.792 31.9086 129.853 32.0794 129.953 32.2281C130.053 32.3769 130.188 32.499 130.347 32.5838C130.505 32.6686 130.682 32.7134 130.862 32.7145H132.219L132.868 30.8931H136.964L137.707 32.7145H138.982C139.162 32.7145 139.339 32.6705 139.497 32.5864C139.656 32.5023 139.791 32.3807 139.891 32.2323C139.991 32.084 140.053 31.9134 140.071 31.7356C140.089 31.5579 140.063 31.3784 139.995 31.2132L136.706 23.2236ZM135.928 28.4258H133.775L134.793 25.6269L135.928 28.4258Z" fill="#55499E"/>
<path d="M150.315 22.3975C149.961 22.399 149.621 22.5401 149.371 22.7898C149.121 23.0395 148.981 23.3776 148.981 23.73V27.8033L144.821 22.8863C144.696 22.7376 144.539 22.6179 144.362 22.5355C144.185 22.4531 143.993 22.41 143.797 22.4091H143.493C143.138 22.4106 142.798 22.5515 142.547 22.8011C142.297 23.0507 142.155 23.3887 142.153 23.7417V31.4053C142.153 31.7587 142.294 32.0977 142.546 32.3476C142.797 32.5975 143.138 32.7379 143.493 32.7379C143.848 32.7379 144.189 32.5975 144.441 32.3476C144.692 32.0977 144.833 31.7587 144.833 31.4053V27.0643L149.198 32.2549C149.322 32.4069 149.479 32.5292 149.657 32.6128C149.835 32.6964 150.03 32.7392 150.227 32.7379H150.315C150.666 32.7318 151.001 32.5887 151.247 32.3394C151.493 32.0902 151.631 31.7547 151.631 31.4053V23.73C151.631 23.3806 151.493 23.0451 151.247 22.7959C151.001 22.5466 150.666 22.4036 150.315 22.3975Z" fill="#55499E"/>
<path d="M55.3414 22.182C54.5375 22.1763 53.7424 22.349 53.0141 22.6875C52.2857 23.026 51.6425 23.5218 51.1311 24.1388C50.6198 24.7558 50.2533 25.4785 50.0582 26.2542C49.8632 27.0299 49.8446 27.8391 50.0037 28.6229C50.1628 29.4066 50.4957 30.1452 50.978 30.7849C51.4604 31.4245 52.0802 31.9491 52.7921 32.3205C53.5041 32.6918 54.2904 32.9005 55.0937 32.9314C55.8971 32.9623 56.6972 32.8147 57.4359 32.4992L58.3837 33.436C58.5041 33.5562 58.6473 33.6515 58.805 33.7165C58.9626 33.7814 59.1316 33.8146 59.3023 33.8143C59.4738 33.8147 59.6437 33.7816 59.8023 33.7167C59.9609 33.6518 60.1051 33.5564 60.2267 33.436C60.4707 33.1928 60.6077 32.8632 60.6077 32.5195C60.6077 32.1759 60.4707 31.8463 60.2267 31.603L59.5363 30.9164C60.1719 30.1271 60.5706 29.1753 60.6864 28.1706C60.8022 27.166 60.6305 26.1492 60.191 25.2372C59.7515 24.3253 59.0621 23.5553 58.2021 23.0159C57.3421 22.4764 56.3464 22.1894 55.3297 22.1878L55.3414 22.182ZM57.3598 28.7517C57.1117 28.5159 56.7816 28.3843 56.4384 28.3843C56.0951 28.3843 55.7651 28.5159 55.5169 28.7517C55.2855 28.9797 55.1491 29.2861 55.135 29.6097C55.1209 29.9334 55.2301 30.2504 55.4408 30.4974H55.3414C54.6812 30.4985 54.0396 30.28 53.5186 29.8768C52.9976 29.4736 52.6271 28.9087 52.4659 28.272C52.3047 27.6353 52.362 26.9633 52.6289 26.3627C52.8957 25.7622 53.3568 25.2676 53.9387 24.9575C54.5206 24.6475 55.19 24.5398 55.8405 24.6515C56.4911 24.7633 57.0854 25.0881 57.529 25.5743C57.9726 26.0605 58.2401 26.6803 58.289 27.3351C58.3378 27.9899 58.1652 28.6421 57.7986 29.1881L57.3598 28.7517Z" fill="#55499E"/>
<path d="M134.553 7.52979C133.366 7.52979 132.205 7.87994 131.218 8.53597C130.231 9.19199 129.462 10.1244 129.007 11.2154C128.553 12.3063 128.434 13.5067 128.666 14.6649C128.898 15.823 129.469 16.8868 130.309 17.7218C131.148 18.5567 132.218 19.1253 133.382 19.3557C134.547 19.5861 135.754 19.4678 136.85 19.016C137.947 18.5641 138.885 17.7989 139.544 16.817C140.204 15.8352 140.556 14.6809 140.556 13.5001C140.555 11.9172 139.922 10.3995 138.796 9.28015C137.671 8.16084 136.145 7.53133 134.553 7.52979ZM134.553 16.7995C133.897 16.7995 133.256 16.606 132.71 16.2435C132.165 15.8809 131.74 15.3656 131.489 14.7627C131.237 14.1598 131.172 13.4964 131.3 12.8564C131.428 12.2164 131.744 11.6285 132.208 11.1671C132.672 10.7057 133.263 10.3914 133.906 10.2641C134.55 10.1368 135.217 10.2021 135.823 10.4519C136.429 10.7016 136.947 11.1245 137.312 11.6671C137.676 12.2096 137.871 12.8476 137.871 13.5001C137.866 14.3727 137.515 15.208 136.893 15.8239C136.272 16.4398 135.431 16.7863 134.553 16.7879V16.7995Z" fill="#55499E"/>
<path d="M101.965 22.1822C101.162 22.1782 100.368 22.3524 99.6404 22.692C98.9131 23.0317 98.2711 23.5283 97.7611 24.1458C97.2511 24.7632 96.8859 25.486 96.692 26.2615C96.4981 27.037 96.4805 27.8457 96.6403 28.6288C96.8002 29.4119 97.1336 30.1498 97.6162 30.7887C98.0988 31.4275 98.7186 31.9514 99.4303 32.3221C100.142 32.6928 100.928 32.9011 101.731 32.9317C102.534 32.9624 103.333 32.8147 104.072 32.4993L105.019 33.4362C105.268 33.6602 105.593 33.7806 105.928 33.7726C106.263 33.7645 106.582 33.6285 106.819 33.3929C107.056 33.1572 107.192 32.8399 107.201 32.5067C107.209 32.1735 107.088 31.85 106.862 31.6032L106.172 30.9166C106.81 30.1279 107.211 29.1759 107.328 28.1704C107.445 27.1648 107.273 26.1469 106.834 25.2341C106.394 24.3213 105.703 23.5509 104.842 23.0119C103.98 22.4729 102.983 22.1873 101.965 22.188V22.1822ZM103.984 28.7519C103.736 28.516 103.406 28.3844 103.062 28.3844C102.719 28.3844 102.389 28.516 102.141 28.7519C101.908 28.9791 101.771 29.2858 101.757 29.6098C101.743 29.9339 101.853 30.2512 102.065 30.4976H101.965C101.305 30.4986 100.664 30.2802 100.143 29.877C99.6216 29.4738 99.251 28.9089 99.0898 28.2722C98.9286 27.6355 98.986 26.9635 99.2529 26.3629C99.5197 25.7624 99.9807 25.2678 100.563 24.9577C101.145 24.6477 101.814 24.5399 102.464 24.6517C103.115 24.7634 103.709 25.0882 104.153 25.5745C104.597 26.0607 104.864 26.6805 104.913 27.3352C104.962 27.99 104.789 28.6423 104.423 29.1883L103.984 28.7519Z" fill="#55499E"/>
</g>
<defs>
<clipPath id="clip0_6588_8112">
<rect width="152" height="40" fill="white"/>
</clipPath>
</defs>
</svg>
